{"title":"Waterloo Bridge (1940 film)","uid":8035224,"size":947461130,"categoryP":"video","categoryS":"movies","magnet":"?xt=urn:btih:320b1acf733ae79669a821e32901fe5c16f7a43d&amp;dn=Waterloo+Bridge+%281940+film%29+&amp;tr=udp%3A%2F%2Ftracker.openbittorrent.com%3A80&amp;tr=udp%3A%2F%2Fopen.demonii.com%3A1337&amp;tr=udp%3A%2F%2Ftracker.coppersurfer.tk%3A6969&amp;tr=udp%3A%2F%2Fexodus.desync.com%3A6969","seeders":0,"leechers":1,"uploader":"ravisugar","files":1,"time":1358508542,"description":"Waterloo Bridge (1940)\n &lt;a href=&quot;\nhttp://www.imdb.com/title/tt0033238/&quot; rel=&quot;nofollow&quot; target=&quot;_NEW&quot;&gt;\nhttp://www.imdb.com/title/tt0033238/&lt;/a&gt;\n\n\n\n108 min  -  Drama | War | Romance\n\nOn the eve of World War II, a British officer revisits Waterloo Bridge and recalls the young man he was at the beginning of World War I and the young ballerina he met just before he left for the front. Myra stayed with him past curfew and is thrown out of the corps de ballet. She survives on the streets of London, falling even lower after she hears her true love has been killed in action. But he wasn't killed. Those terrible years were nothing more than a bad dream is Myra's hope after Roy finds her and takes her to his family's country estate. \n\nGeneral\nComplete name                            : C:UsersPornDocumentsFFOutputWATERLOO_BRIDEWATERLOO_BRIDE.avi\nFormat                                   : AVI\nFormat/Info                              : Audio Video Interleave\nFile size                                : 904 MiB\nDuration                                 : 1h 48mn\nOverall bit rate                         : 1 162 Kbps\nWriting application                      : MEncoder SVN-r30881(20100311-gcc4.3.3)\nWriting library                          : MPlayer\n\nVideo\nID                                       : 0\nFormat                                   : MPEG-4 Visual\nFormat profile                           : Advanced Simple@L5\nFormat settings, BVOP                    : 2\nFormat settings, QPel                    : No\nFormat settings, GMC                     : No warppoints\nFormat settings, Matrix                  : Default (H.263)\nCodec ID                                 : XVID\nCodec ID/Hint                            : XviD\nDuration                                 : 1h 48mn\nBit rate                                 : 1 022 Kbps\nWidth                                    : 720 pixels\nHeight                                   : 480 pixels\nDisplay aspect ratio                     : 4:3\nOriginal display aspect ratio            : 3:2\nFrame rate                               : 24.000 fps\nStandard                                 : NTSC\nColor space                              : YUV\nChroma subsampling                       : 4:2:0\nBit depth                                : 8 bits\nScan type                                : Progressive\nCompression mode                         : Lossy\nBits/(Pixel*Frame)                       : 0.123\nStream size                              : 795 MiB (88%)\nWriting library                          : XviD 1.2.1 (UTC 2008-12-04)\n\nAudio\nID                                       : 1\nFormat                                   : MPEG Audio\nFormat version                           : Version 1\nFormat profile                           : Layer 3\nMode                                     : Joint stereo\nMode extension                           : MS Stereo\nCodec ID                                 : 55\nCodec ID/Hint                            : MP3\nDuration                                 : 1h 48mn\nBit rate mode                            : Constant\nBit rate                                 : 128 Kbps\nChannel(s)                               : 2 channels\nSampling rate                            : 44.1 KHz\nCompression mode                         : Lossy\nDelay relative to video                  : 42ms\nStream size                              : 99.5 MiB (11%)\nAlignment                                : Aligned on interleaves\nInterleave, duration                     : 26 ms (0.63 video frame)\nInterleave, preload duration             : 522 ms\nWriting library                          : LAME3.98\n\n","torrent":{"xt":"urn:btih:320b1acf733ae79669a821e32901fe5c16f7a43d","amp;dn":"Waterloo+Bridge+%281940+film%29+","amp;tr":["udp%3A%2F%2Ftracker.openbittorrent.com%3A80","udp%3A%2F%2Fopen.demonii.com%3A1337","udp%3A%2F%2Ftracker.coppersurfer.tk%3A6969","udp%3A%2F%2Fexodus.desync.com%3A6969"],"infoHash":"320b1acf733ae79669a821e32901fe5c16f7a43d","infoHashBuffer":{"type":"Buffer","data":[50,11,26,207,115,58,231,150,105,168,33,227,41,1,254,92,22,247,164,61]},"announce":[],"urlList":[]}}